<?xml version="1.0" encoding="UTF-8"?> <svg xmlns="http://www.w3.org/2000/svg" width="1663.483" height="491.39" viewBox="0 0 1663.483 491.39"><title>Recurso 1MC</title><g><g><path d="M573.408,228.5c0-47.934,24.688-77.705,76.258-77.705,52.651,0,75.164,28.684,75.164,77.705v41.4H616.981v19.611c0,15.249,9.445,30.138,35.948,30.138,22.88,0,34.139-5.083,53.017-15.249l14.528,32.319c-20.338,11.62-38.856,20.7-69.36,20.7-51.924,0-77.706-27.236-77.706-71.9Zm43.572,7.264h65.365c0-31.592-6.177-47.207-32.679-47.207C623.518,188.561,616.981,202.362,616.981,235.768Z" fill="#0047ba"></path><path d="M763.994,82.166h43.578V228.5h16.7l44.666-74.8h46.48l-55.559,91.146L916.87,354.511h-47.2s-14.162-28.323-44.306-89.332H807.573v89.332H763.994Z" fill="#0047ba"></path><path d="M990.562,171.5c11.253-9.806,29.777-20.7,53.378-20.7,43.212,0,60.282,30.865,60.282,70.441V354.511h-43.578V230.685c0-27.963-11.62-37.768-31.952-37.768-15.616,0-31.231,9.445-38.129,16.343V354.511H946.983V82.166h43.578Z" fill="#0047ba"></path><path d="M1152.535,82.166h43.572V130.1h-43.572Zm0,71.535h43.572v200.81h-43.572Z" fill="#0047ba"></path><path d="M1249.045,82.165h43.578V354.511h-43.578Z" fill="#0047ba"></path><path d="M1403.64,357.419c-43.212,0-59.915-30.871-59.915-70.448V153.7H1387.3V277.526c0,27.963,11.253,37.768,31.592,37.768,15.609,0,30.5-9.445,37.4-16.343V153.7h43.572v200.81h-35.587l-3.989-21.426C1449.76,343.617,1430.149,357.419,1403.64,357.419Z" fill="#0047ba"></path><path d="M1595.943,354.511h-43.578V153.7h35.954l3.629,26.509C1600.3,169.316,1618.1,150.8,1641.7,150.8c7.991,0,17.43,1.814,21.786,3.989l-7.985,42.124a67.829,67.829,0,0,0-20.338-3.629c-17.43,0-30.865,9.806-39.216,21.059Z" fill="#0047ba"></path></g><g><path d="M350.082,288.939,419.421,419.43l.01-.01a246.553,246.553,0,0,0,28.285-33.865l-38.264-72.02,78.007-23.877a246.717,246.717,0,0,0,3.929-43.954v-.01Z" fill="#ff9012"></path><path d="M409.452,177.875l38.274-72.04A247.3,247.3,0,0,0,419.441,71.97c-.01-.01-.01-.01-.02-.01l-69.339,130.5,141.307,43.234a246.718,246.718,0,0,0-3.929-43.954Z" fill="#ff9012"></path><path d="M313.518,81.948,289.642,3.919A246.674,246.674,0,0,0,245.73,0h-.04A246.72,246.72,0,0,0,201.77,3.92L177.89,81.962,105.84,43.671a247.4,247.4,0,0,0-33.87,28.3l130.51,69.362L245.709.066,288.932,141.31,419.421,71.96a247.375,247.375,0,0,0-33.865-28.3Z" fill="#ff9012"></path><path d="M245.689,491.39h.01a246.783,246.783,0,0,0,43.953-3.929l23.866-77.989,72.008,38.265a247.711,247.711,0,0,0,33.895-28.306L288.932,350.09Z" fill="#ff9012"></path><path d="M71.968,419.43a246.223,246.223,0,0,0,33.885,28.3l72-38.255,23.866,77.989a247.007,247.007,0,0,0,43.973,3.929l-43.243-141.3Z" fill="#ff9012"></path><path d="M71.958,71.96a246.238,246.238,0,0,0-28.3,33.885l38.274,72.03L3.919,201.741A247.652,247.652,0,0,0,0,245.695l141.307-43.234Z" fill="#ff9012"></path><path d="M0,245.695v.01a246.8,246.8,0,0,0,3.929,43.954l78.007,23.877-38.274,72.01a246.748,246.748,0,0,0,28.3,33.875l69.349-130.481Z" fill="#ff9012"></path></g></g></svg> 